<svg width="900" height="1023" viewBox="0 0 900 1023" fill="none" xmlns="http://www.w3.org/2000/svg">
<g filter="url(#filter0_d)">
<mask id="mask0" mask-type="alpha" maskUnits="userSpaceOnUse" x="-410" y="-1" width="1605" height="1208">
<rect x="-410" y="6.66602" width="1600" height="1200" transform="rotate(-0.238727 -410 6.66602)" fill="white"/>
</mask>
<g mask="url(#mask0)">
<path d="M-688.85 124.596C-638.707 256.726 -599.539 393.518 -559.779 529.044C-517.384 673.489 -516.633 825.646 -500.28 973.346C-490.483 1062.35 -471.645 1148.09 -412.42 1218.63C-370.951 1267.97 -321.328 1301.11 -259.839 1320.1C-174.174 1346.55 -81.1033 1346.72 2.89478 1377.67C22.3364 1384.83 42.0138 1394.51 54.9693 1411.29C65.7181 1425.24 70.8867 1442.81 78.036 1458.31C84.404 1472.12 95.0684 1477.58 108.567 1478.99C149.741 1483.26 202.502 1458.28 245.193 1450.55C254.211 1448.91 265.757 1447.17 273.674 1442.38C279.324 1438.96 279.137 1434.13 278.816 1429.92C276.318 1397.28 277.655 1363.01 269.339 1330.87C259.808 1294.04 236.302 1268.63 204.232 1252.72C149.245 1225.5 78.4599 1223.76 16.0748 1213.14C-45.4966 1202.61 -107.484 1191.11 -166.551 1170.23C-216.55 1152.59 -263.444 1127.5 -302.926 1091.79C-352.382 1047.01 -379.254 984.977 -395.869 922.308C-436.687 768.162 -434.045 602.767 -473.05 446.338C-492.453 368.506 -516.948 291.332 -541.108 214.863C-561.792 149.378 -583.85 83.3296 -613.532 21.8717C-621.884 4.56523 -632.084 -18.7329 -650.554 -27.9686C-659.52 -32.4504 -668.541 -31.5894 -677.167 -29.9262C-689.973 -27.4515 -702.825 -21.6633 -710.472 -10.8189C-735.8 25.0475 -703.92 89.4469 -688.85 124.547" fill="#137D9F"/>
<path d="M-591.398 18.1817C-560.696 88.4001 -536.535 161.244 -513.758 234.26C-498.794 282.239 -484.409 330.446 -469.945 378.594C-447.872 452.035 -434.453 527.316 -423.474 603.048C-411.556 685.238 -401.87 768.574 -384.955 849.517C-365.758 941.372 -335.16 1028.95 -259.665 1090.34C-199.623 1139.11 -126.166 1165.78 -51.9188 1184.3C-5.76596 1195.81 41.0217 1204.29 87.837 1212.33C131.501 1219.83 177.151 1223.64 218.423 1240.82C273.933 1263.94 300.374 1309.63 327.558 1359.47C337.631 1377.94 354.173 1390.64 372.184 1400.03C415.351 1422.56 465.892 1432.5 514.59 1440.32C520.951 1441.34 527.547 1442.34 534.368 1443.09C547.949 1444.56 561.624 1444.97 575.269 1444.33C576.25 1444.32 577.231 1444.25 578.211 1444.18C587.782 1443.42 599.139 1442.79 607.552 1437.31C612.522 1434.07 612.343 1428.82 611.419 1423.64C593.424 1325.98 568.769 1223.81 482.707 1166.65C431.555 1132.67 367.657 1128.33 307.447 1119.12C238.364 1108.63 169.044 1097.81 100.954 1083.35C17.4012 1065.61 -68.7218 1043.22 -143.65 1000.11C-222.109 954.951 -264.339 886.535 -293.251 803.554C-330.283 697.262 -346.373 583.677 -368.299 472.753C-390.144 362.222 -423.295 255.208 -457.349 148.119C-477.825 83.7409 -499.159 18.2483 -528.689 -41.6118C-537.296 -59.0571 -547.247 -76.3792 -561.792 -89.9859C-572.271 -99.8348 -585.279 -109.585 -599.468 -112.879C-608.521 -114.949 -621.83 -112.011 -627.565 -104.016C-638.361 -88.9903 -628.505 -65.9225 -622.654 -50.7991C-613.551 -27.3065 -602.205 -4.55865 -591.369 18.1816" fill="#0ABBAB"/>
<path d="M-522.378 -62.4555C-490.971 0.259088 -467.617 66.4268 -446.017 132.915C-431.12 178.905 -416.927 225.299 -402.559 271.486C-379.297 346.277 -363.458 422.94 -347.835 499.624C-330.761 583.366 -312.754 667.526 -286.545 748.468C-271.122 796.081 -252.414 843.593 -225.766 886.486C-198.545 930.278 -157.905 961.737 -113.04 986.036C-21.6603 1035.51 83.0041 1059.16 184.181 1078.86C238.391 1089.41 292.926 1098.16 347.479 1106.7C398.354 1114.67 450.979 1119.01 497.896 1141.88C572.31 1178.06 615.329 1248.79 655.116 1317.93C668.605 1341.39 686.257 1361.51 706.037 1379.39C749.435 1418.61 795.318 1449.69 851.076 1469.6C858.045 1472.24 865.18 1474.42 872.436 1476.12C885.094 1478.79 898.424 1480.58 911.472 1477.92C912.236 1477.77 912.98 1477.58 913.695 1477.39C923.184 1474.83 927.388 1469.77 929.564 1462.51C930.966 1457.84 929.214 1451.54 926.726 1445.05C881.133 1325.94 836.259 1191.11 730.46 1114.07C675.845 1074.3 610.394 1069.03 544.475 1059.81C462.625 1048.39 380.58 1036.91 299.423 1022.32C195.564 1003.67 88.3104 982.13 -8.39133 937.785C-54.5568 916.598 -98.2656 887.375 -128.849 846.096C-155.025 810.745 -174.939 770.019 -191.841 729.848C-235.349 626.404 -261.886 516.227 -290.084 407.281C-317.067 302.964 -350.638 201.184 -385.13 99.2891C-404.465 42.1777 -424.09 -16.0592 -451.319 -68.9636C-459.73 -85.3209 -469.766 -101.093 -482.246 -115.043C-497.513 -132.107 -514.838 -151.562 -535.14 -160.59C-543.341 -164.23 -556.285 -169.712 -564.568 -164.729C-583.638 -153.294 -530.609 -77.7456 -522.358 -62.3576" fill="#143264"/>
<path d="M-447.977 -98.2788C-415.085 -41.9235 -391.309 18.6275 -369.639 79.864C-353.756 124.69 -338.724 170.166 -323.724 215.26C-298.59 290.799 -280.371 368.936 -259.892 445.886C-236.781 532.74 -209.591 619.155 -174.461 701.653C-154.807 747.777 -132.57 794.195 -102.823 835.128C-68.5968 882.211 -19.6611 913.857 33.2976 936.298C145.327 983.754 268.804 1005.08 388.221 1024.48C450.929 1034.66 513.866 1043.43 576.774 1052.13C625.341 1058.85 677.509 1061.19 723.272 1080.02C813.432 1117.14 869.665 1204.93 917.497 1284.96C932.572 1310.21 949.017 1334.63 966.411 1358.4C999.304 1403.37 1034.17 1460.88 1085.85 1485.88C1090.76 1488.28 1096.02 1490.68 1101.03 1491.7C1111.62 1493.96 1119.66 1490.13 1123.67 1483.94C1124.02 1483.44 1124.34 1482.92 1124.64 1482.39C1128.59 1474.58 1127 1462.21 1125.36 1454.2C1123.73 1447.09 1121.3 1440.19 1118.1 1433.64C1055.99 1302.5 978.129 1159.61 857.637 1077.52C803.716 1040.8 743.663 1034.48 678.943 1026.34C597.008 1016.05 514.679 1007.68 433.034 996.509C328.235 982.168 219.523 965.921 121.184 924.508C25.3796 884.154 -32.2484 809.947 -70.2781 716.497C-111.132 616.097 -132.593 508.516 -160.547 403.532C-187.424 302.839 -225.856 206.988 -264.095 110.362C-285.331 56.7138 -307.297 2.09759 -336.264 -46.8706C-345.866 -62.9089 -357.177 -77.8609 -369.999 -91.465C-393.905 -117.106 -420.084 -142.12 -450.089 -160.381C-462.776 -168.105 -476.86 -176.734 -491.237 -180.518C-507.932 -184.91 -487.647 -156.91 -485.169 -153.243C-472.781 -134.909 -459.64 -117.126 -448.016 -98.2787" fill="#2273AB"/>
<path d="M-337.84 -87.2065C-297.794 -34.2525 -265.758 23.3715 -238.878 83.5952C-219.599 126.813 -203.438 172.25 -186.246 215.948C-157.34 289.347 -142.909 369.267 -125.957 446.962C-106.855 534.518 -86.2099 623.333 -53.8228 706.433C-35.8158 752.597 -15.2057 797.594 18.609 835.076C55.428 875.878 101.82 903.583 153.059 922.524C258.52 961.433 373.45 973.697 484.553 985.39C542.788 991.548 601.126 996.755 659.351 1003.01C708.395 1008.29 761.915 1010.11 808.684 1026.9C901.229 1060.06 974.622 1141.76 1037.06 1214.04C1058.14 1238.46 1079.8 1262.45 1101.4 1286.31C1152.73 1342.95 1200.59 1419.47 1277.4 1443.81C1285.25 1446.31 1293.67 1448.49 1302.04 1448.54C1316.44 1448.62 1334.02 1442.46 1341.83 1429.22C1342.36 1428.35 1342.84 1427.44 1343.27 1426.5C1349.47 1412.3 1343.3 1396.99 1338.27 1383.39C1335.21 1375.11 1329.78 1366.6 1324.55 1359.53C1267.22 1281.98 1196.28 1211.15 1122.79 1147.54C1045.33 1080.41 961.857 1017.15 871.821 969.66C841.125 953.486 808.667 938.212 774.591 929.649C742.86 921.684 708.667 920.513 676.118 918.502C601.654 913.911 526.827 913.987 452.421 911.592C358.668 908.64 260.227 905.031 170.758 873.554C125.895 857.773 84.4726 832.105 52.6949 796.438C23.3109 763.447 9.6568 719.578 1.52853 677.127C-17.4735 578.052 -10.0292 475.161 -16.0179 374.415C-19.0019 324.169 -24.7616 273.679 -38.3372 225.095C-50.8181 180.417 -71.8165 138.706 -92.9291 97.8185C-119.617 46.093 -149.45 -5.34486 -185.785 -49.9428C-198.008 -64.7984 -211.805 -78.2856 -226.935 -90.1683C-261.216 -117.316 -298.347 -143.462 -339.697 -158.641C-354.642 -164.127 -371.22 -168.587 -386.502 -170.258C-408.68 -172.695 -388.563 -147.194 -383.616 -141.058C-368.833 -122.72 -352.535 -105.653 -337.84 -87.2359" fill="#7289DA"/>
<path d="M-208.206 -117.126C-155.227 -68.5533 -107.963 -14.8499 -70.5247 45.7949C-45.9413 85.6154 -22.1257 129.438 -9.48606 174.013C11.8918 249.399 6.86525 332.735 5.23426 412C3.43126 499.401 0.663414 588.246 15.4423 673.196C23.4195 719.045 40.7369 761.307 76.155 793.78C109.408 824.292 149.59 844.699 192.847 856.82C283.896 882.317 381.791 879.684 475.444 878.245C525.756 877.467 576.076 876.14 626.395 876.813C671.683 877.418 719.967 876.991 764.218 887.707C887.45 917.579 1002.24 996.672 1105.24 1066.96C1141.57 1091.76 1178.3 1116.4 1214.3 1141.58C1272.33 1182.14 1327.43 1227.22 1385.14 1268.54C1435.01 1304.26 1489.12 1336.32 1549.71 1348.49C1562.8 1351.12 1576.94 1353.38 1589.76 1351.92C1607.74 1349.89 1634.4 1343.2 1637.28 1320.48C1637.46 1319.18 1637.52 1317.86 1637.45 1316.55C1636.38 1294.14 1614.8 1273.96 1600.37 1259.2C1591.21 1249.97 1581.56 1241.24 1571.44 1233.06C1467.74 1147.77 1349.87 1075.87 1232.33 1009.03C1112.2 940.824 987.988 876.463 859.703 827.027C788.258 799.498 719.821 780.816 642.562 781.863C577.61 782.771 512.884 791.039 448.463 797.375C368.605 805.235 283.444 813.834 205.046 790.95C163.397 778.792 124.545 755.185 95.2863 723.019C65.7326 690.6 57.1421 645.832 57.322 604.291C57.7442 505.565 92.1323 406.149 109.656 307.371C117.963 260.552 124.088 212.596 120.37 164.984C116.755 118.734 99.9289 79.1559 79.0398 38.7123C50.6371 -16.3341 17.0724 -69.977 -23.3157 -116.152C-36.9494 -131.693 -52.2461 -145.694 -68.9317 -157.904C-113.195 -190.379 -164.082 -219.112 -220.574 -223.523C-238.417 -224.919 -259.311 -224.038 -275.566 -216.07C-321.581 -193.52 -224.791 -131.681 -208.206 -117.126Z" fill="#9898BC"/>
<path d="M-76.925 -215.252C-15.4921 -162.727 41.8413 -105.41 85.2788 -38.0448C111.48 2.59893 138.039 49.2017 145.504 96.482C158.318 177.591 132.388 265.646 112.53 346.499C91.1089 433.692 58.9326 529.067 68.5379 616.865C73.27 660.304 90.4434 695.358 126.371 723.551C158.043 748.281 195.471 764.581 235.157 770.928C311.715 783.432 391.265 768.013 466.795 755.258C546.021 741.928 628.079 725.783 708.73 734.447C765.909 740.581 822.155 762.904 875.421 783.387C955.704 814.267 1034.18 849.997 1111.51 887.3C1160.89 911.103 1210.37 935.308 1259.13 960.378C1356.05 1010.22 1450.67 1065.01 1546.61 1117.07C1617.45 1155.53 1692.64 1197.39 1771.99 1213.77C1783.01 1216.04 1795.2 1217.67 1806.19 1215.4C1829.44 1210.59 1819.98 1180.57 1813.18 1168.13C1812.17 1166.34 1811.05 1164.61 1809.83 1162.96C1789.38 1134.13 1758.04 1112.19 1729.19 1092.93C1715.73 1083.93 1701.59 1075.2 1687.62 1066.74C1554.87 986.34 1415.16 915.269 1274.38 848.731C1144.29 787.237 1011.65 727.607 875.469 681.941C808.001 659.321 744.684 641.919 673.009 647.61C614.404 652.266 556.747 665.652 499.358 677.273C427.542 691.817 350.582 707.48 277.521 691.364C238.154 682.704 200.149 662.129 171.693 633.494C140.076 601.686 131.578 558.312 133.257 516.365C137.22 417.716 180.896 318.608 210.702 221.783C225.47 173.851 239.419 124.658 243.437 74.4574C246.981 30.6016 239.096 -6.95191 219.906 -45.6936C193.355 -99.3246 158.976 -148.714 117.897 -192.242C103.462 -207.35 88.0707 -221.514 71.8167 -234.646C19.9014 -276.908 -41.3987 -314.043 -107.388 -330.061C-124.03 -334.089 -146.358 -337.653 -162.313 -329.783C-211.822 -305.362 -93.4208 -228.938 -76.9152 -215.252" fill="#7158D1"/>
<path d="M707.6 -437.633C766.43 -398.339 783.945 -342.465 795.439 -275.967C809.517 -194.74 830.29 -115.17 866.457 -41.5034C890.212 6.96494 921.623 67.7272 967.9 99.3892C1021.37 135.967 1100.4 117.542 1156.63 101.095C1240.24 76.6351 1326.91 38.3054 1402.23 -7.9653C1431.8 -26.1258 1448.58 -35.8915 1477.66 -14.9528C1481.78 -12.0259 1487.02 -7.83773 1492.66 -10.8151C1497 -13.1001 1500.48 -19.1205 1503.86 -24.748C1511.22 -37.1895 1519.54 -49.0364 1528.74 -60.1804C1537.11 -70.2055 1547.64 -82.8794 1547.59 -96.7948C1547.55 -105.931 1543.06 -112.34 1539.26 -117.123C1532.65 -125.467 1518.11 -150.313 1504.36 -144.632C1492.74 -139.824 1482.09 -129.711 1471.09 -122.364C1442.18 -102.999 1411.28 -86.0207 1380.59 -70.4365C1277.48 -18.0638 1128.36 45.1975 1023.41 -37.8688C949.951 -96.0318 900.875 -173.089 883.361 -263.978C871.635 -324.862 864.14 -385.586 831.452 -439.425C819.208 -459.58 802.839 -475.959 782.714 -487.053C762.176 -498.351 731.449 -503.051 709.506 -491.252C690.441 -480.967 690.668 -450.133 707.6 -437.633Z" fill="#0ABBAB"/>
<path d="M595.986 -417.512C581.277 -417.177 571.632 -402.083 576.687 -389.168C577.67 -386.814 579.147 -384.698 581.018 -382.962C613.609 -353.619 640.734 -315.883 654.92 -274.653C661.164 -256.48 666.224 -237.694 670.97 -218.946C679.943 -183.535 689.202 -147.92 697.548 -112.37C706.823 -72.8834 715.531 -32.9048 725.501 6.37275C729.887 23.5737 734.559 40.9107 739.445 57.9528C754.738 110.811 773.49 163.273 798.631 211.915C817.168 247.795 839.175 278.702 881.622 287.032C924.453 295.429 971.619 285.295 1012.54 274.824C1125.78 245.824 1236.57 192.714 1344.97 146.269C1364.25 138.016 1386.5 126.015 1406.49 127.902C1423.17 129.479 1438.89 138.008 1454.89 145.959C1458.25 147.62 1461.95 149.33 1465.52 149.707C1468.13 150.094 1470.77 149.263 1472.69 147.452C1476.01 144.293 1477.7 137.543 1479.03 130.844C1481.17 120.054 1483.2 109.177 1485.17 98.3397C1485.87 94.544 1486.55 90.7975 1487.27 87.1292C1489.98 73.2798 1492.11 57.8059 1487.74 44.0056C1485.09 35.9093 1480.58 28.5444 1474.58 22.4996C1462.7 9.88698 1444.85 -11.9425 1424.44 -7.51586C1409.11 -4.18846 1394.53 4.20261 1380.32 11.0633C1348.38 26.4653 1315.94 41.0561 1283.8 55.8807C1245.53 73.5436 1206.61 90.7291 1167.31 105.28C1107.39 127.443 1035.01 152.657 969.686 141.384C912.571 131.479 875.113 80.3596 846.3 35.3392C808.308 -24.0202 786.08 -91.3443 770.327 -160.509C763.025 -192.535 757.71 -225.511 750.242 -257.272C743.763 -284.843 735.186 -312.278 722.256 -336.921C712.359 -355.927 698.641 -372.685 681.962 -386.147C659.173 -404.624 625.647 -418.195 595.986 -417.512Z" fill="#7770A3"/>
<path d="M474.543 -369.745C464.448 -370.683 446.341 -369.716 446.502 -354.742C446.606 -352.954 447.204 -351.23 448.231 -349.761C471.617 -311.062 503.888 -279.004 522.241 -237.373C530.694 -218.191 538.11 -198.24 544.995 -178.395C557.912 -140.847 570.255 -102.249 581.24 -64.35C593.549 -21.8901 602.402 22.4364 611.693 66.1044C615.938 86.0095 620.163 105.964 624.545 125.829C637.942 186.443 652.978 247.227 674.079 305.281C688.745 345.634 704.157 395.205 741.106 421.55C779.336 448.83 830.628 442.521 873.682 435.589C1020.58 411.899 1157.86 342.072 1303.02 307.227C1331.8 300.326 1364.35 290.4 1393.14 297.542C1416.8 303.421 1439.43 316.723 1462.16 326.124C1466.53 327.929 1471.29 329.487 1475.68 329.704C1478.77 329.857 1481.63 329.101 1483.68 326.564C1486.47 323.122 1487.29 316.2 1487.28 309.105C1487.23 297.277 1486.52 285.364 1485.36 273.531C1484.96 269.397 1484.44 265.283 1483.97 261.296C1482.19 246.31 1479.33 230.466 1472.47 217.02C1468.03 208.677 1462.19 201.159 1455.19 194.798C1435.98 177.434 1415.18 158.353 1387.32 159.802C1367.69 160.863 1348.67 168.008 1330.21 174.004C1293.77 185.828 1257.91 198.628 1222.39 212.859C1180.32 229.693 1138.12 247.43 1095.72 263.159C1028.41 288.115 951.645 316.335 878.338 313.975C804.443 311.598 774.264 251.69 745.975 193.059C706.963 112.178 683.794 24.1944 663.903 -63.8908C655.542 -100.899 646.612 -137.934 637.066 -174.516C629.505 -203.501 621.049 -232.738 608.766 -259.44C599.772 -279.039 587.632 -297.038 572.823 -312.728C547.73 -339.328 509.845 -366.589 474.543 -369.745Z" fill="#7289DA"/>
<path d="M346.223 -343.539C333.321 -348.725 315.214 -355.673 301.669 -350.553C300.649 -350.232 299.879 -349.392 299.647 -348.35C297.75 -332.769 320.394 -313.127 329.562 -302.136C347.042 -281.258 365.178 -260.461 379.859 -237.701C392.694 -217.822 404.827 -197.059 415.812 -176.144C437.052 -135.464 455.099 -93.2007 469.791 -49.7332C484.797 -5.46499 496.276 37.3292 501.836 83.9483C504.275 104.429 506.089 125.264 507.735 145.924C512.692 207.972 515.839 271.096 527.833 331.704C536.851 377.222 549.617 427.533 574.847 467.655C601.687 510.346 645.746 532.69 693.196 537.683C865.182 555.871 1039.92 454.639 1211.98 436.076C1269.66 429.851 1326.16 443.103 1378.98 465.803C1430.34 487.862 1479.47 521.625 1532.45 540.641C1538.66 542.868 1544.08 544.109 1547.7 543.252C1550.23 542.644 1551.66 540.679 1551.11 536.097C1550.47 530.722 1546.95 521.804 1542.83 512.507C1536.13 497.373 1528.98 482.26 1521.7 467.402C1519.21 462.329 1516.76 457.442 1514.36 452.741C1506.19 436.486 1497.92 419.409 1487.03 405.282C1480.28 396.328 1472.61 388.098 1464.15 380.724C1437.24 357.75 1408.05 335.021 1371.46 331.745C1310.1 326.251 1238.77 347.284 1181.4 364.076C1136.17 377.32 1090.93 392.74 1045.76 406.758C970.629 430 890.97 454.271 811.461 455.787C775.375 456.476 740.882 448.686 714.552 422.634C689.198 397.548 675.571 361.717 662.018 329.725C621.529 234.151 596.072 132.705 570.266 31.908C559.296 -11.0645 545.593 -53.3597 532.859 -95.8645C523.27 -127.941 513.325 -160.34 500.152 -190.649C490.946 -211.985 479.175 -232.124 465.098 -250.622C434.512 -290.673 392.473 -324.946 346.223 -343.539Z" fill="#2273AB"/>
<path d="M192.152 -357.359C174.637 -366.537 154.699 -376.048 134.408 -378.364C132.515 -378.606 130.602 -378.654 128.699 -378.507C109.589 -377.644 148.205 -343.309 151.71 -340.05C173.863 -319.347 197.393 -299.787 218.158 -277.892C236.352 -258.701 254.089 -238.528 270.455 -217.84C301.591 -178.457 329.122 -135.511 350.426 -90.128C371.73 -44.7452 378.942 -1.58704 376.178 48.2374C374.992 69.7041 372.288 91.6574 369.102 113.093C359.352 178.489 343.464 244.313 336.273 309.855C331.076 357.113 331.245 404.72 340.347 451.996C350.532 504.961 376.515 545.924 422.175 571.086C512.136 620.573 628.94 597.018 727.988 574.506C819.109 553.812 918.003 515.67 1012.54 521.871C1127.86 529.436 1244.19 585.752 1346.1 635.277C1406.31 664.534 1465.75 696.195 1525.2 727.395C1571.96 751.955 1619.27 779.462 1668.12 797.624C1676.78 800.851 1686.51 804.789 1695.95 804.897C1700.36 804.947 1703.18 802.995 1702.09 797.747C1700.29 789.081 1694.68 780.539 1690.22 772.885C1679.87 755.229 1667.68 738.111 1655.17 721.689C1650.69 715.828 1646.25 710.192 1641.86 704.781C1626.74 686.155 1610.73 667.838 1593.04 651.869C1579.5 639.693 1565.27 628.301 1550.42 617.747C1481.5 568.603 1406.86 526.285 1328.04 497.086C1285.29 481.231 1240.03 468.259 1193.88 464.923C1152.41 461.93 1109.86 468.958 1069.74 477.406C1024.37 486.964 979.036 499.902 933.943 511.801C858.128 531.825 780.243 551.474 701.176 551.353C663.565 551.294 625.317 544.074 593.922 522.4C560.127 499.021 541.432 465.525 527.598 428.813C488.198 324.177 479.871 211.17 468.429 98.8615C462.877 44.4266 453.054 -6.3548 434.697 -57.7278C421.798 -93.7475 407.025 -129.74 389.085 -163.24C376.62 -186.387 362.242 -208.454 346.1 -229.21C304.855 -282.369 250.937 -326.567 192.152 -357.359Z" fill="#559BBF"/>
<path d="M264.38 40.6468C257.147 131.82 217.79 221.912 188.852 309.657C160.486 395.675 125.216 508.516 175.791 586.737C219.306 654.031 318.52 670.66 397.394 665.314C478.709 659.791 557.785 637.019 637.179 620.125C674.151 612.258 711.49 605.233 749.249 602.586C791.971 599.605 831.074 606.165 872.131 617.931C1023.58 661.401 1168.88 731.496 1309.31 801.208C1417.52 854.943 1524.42 912.134 1631.79 968.018C1672.86 989.408 1713.97 1010.8 1755.87 1030.55C1780.95 1042.35 1807.67 1056.17 1835.16 1060.8C1842.12 1061.98 1847.75 1061.21 1848.24 1056.83C1850.64 1035 1823.05 1005.43 1808.63 988.911C1784.28 961.013 1754.07 937.745 1723.74 916.164C1540.4 785.662 1330 680.402 1117.62 602.884C1051.01 578.572 975.815 549.054 903.675 550.599C843.572 551.888 784.201 566.561 725.964 580.201C599.533 609.815 372.765 664.338 320.254 505.253C292.314 420.597 304.541 322.376 317.457 231.836C329.591 146.669 354.41 52.1497 337.497 -32.5134C324.031 -99.9325 278.931 -166.201 234.303 -217.947C182.667 -277.798 115.954 -325.159 44.2586 -358.338C24.2263 -367.604 1.29817 -377.28 -21.1999 -377.921C-59.4653 -379.016 -28.0893 -347.893 -15.1429 -336.951C10.1886 -315.555 38.9758 -298.279 64.5695 -277.501C127.865 -226.137 186.589 -167.678 227.682 -97.6102C253.866 -52.9318 268.5 -11.2924 264.38 40.6468Z" fill="#2273AB"/>
</g>
</g>
<defs>
<filter id="filter0_d" x="-414" y="-0.000976562" width="1612.99" height="1214.66" filterUnits="userSpaceOnUse" color-interpolation-filters="sRGB">
<feFlood flood-opacity="0" result="BackgroundImageFix"/>
<feColorMatrix in="SourceAlpha" type="matrix" values="0 0 0 0 0 0 0 0 0 0 0 0 0 0 0 0 0 0 127 0"/>
<feOffset dy="4"/>
<feGaussianBlur stdDeviation="2"/>
<feColorMatrix type="matrix" values="0 0 0 0 0 0 0 0 0 0 0 0 0 0 0 0 0 0 0.25 0"/>
<feBlend mode="normal" in2="BackgroundImageFix" result="effect1_dropShadow"/>
<feBlend mode="normal" in="SourceGraphic" in2="effect1_dropShadow" result="shape"/>
</filter>
</defs>
</svg>
